<svg width="115" height="49" viewBox="0 0 115 49" fill="none" xmlns="http://www.w3.org/2000/svg">
<g filter="url(#filter0_d)">
<path d="M4.86133 23.3496C4.86133 20.3848 5.52344 18.0234 6.84766 16.2656C8.18359 14.5078 10.0059 13.6289 12.3145 13.6289C14.166 13.6289 15.6953 14.3203 16.9023 15.7031V6H22V33H17.4121L17.166 30.9785C15.9004 32.5605 14.2715 33.3516 12.2793 33.3516C10.041 33.3516 8.24219 32.4727 6.88281 30.7148C5.53516 28.9453 4.86133 26.4902 4.86133 23.3496ZM9.94141 23.7188C9.94141 25.5 10.252 26.8652 10.873 27.8145C11.4941 28.7637 12.3965 29.2383 13.5801 29.2383C15.1504 29.2383 16.2578 28.5762 16.9023 27.252V19.7461C16.2695 18.4219 15.1738 17.7598 13.6152 17.7598C11.166 17.7598 9.94141 19.7461 9.94141 23.7188ZM34.6914 33.3516C31.9023 33.3516 29.6289 32.4961 27.8711 30.7852C26.125 29.0742 25.252 26.7949 25.252 23.9473V23.4551C25.252 21.5449 25.6211 19.8398 26.3594 18.3398C27.0977 16.8281 28.1406 15.668 29.4883 14.8594C30.8477 14.0391 32.3945 13.6289 34.1289 13.6289C36.7305 13.6289 38.7754 14.4492 40.2637 16.0898C41.7637 17.7305 42.5137 20.0566 42.5137 23.0684V25.1426H30.4023C30.5664 26.3848 31.0586 27.3809 31.8789 28.1309C32.7109 28.8809 33.7598 29.2559 35.0254 29.2559C36.9824 29.2559 38.5117 28.5469 39.6133 27.1289L42.1094 29.9238C41.3477 31.002 40.3164 31.8457 39.0156 32.4551C37.7148 33.0527 36.2734 33.3516 34.6914 33.3516ZM34.1113 17.7422C33.1035 17.7422 32.2832 18.082 31.6504 18.7617C31.0293 19.4414 30.6309 20.4141 30.4551 21.6797H37.5215V21.2754C37.498 20.1504 37.1934 19.2832 36.6074 18.6738C36.0215 18.0527 35.1895 17.7422 34.1113 17.7422ZM55.7148 27.7441C55.7148 27.123 55.4043 26.6367 54.7832 26.2852C54.1738 25.9219 53.1895 25.5996 51.8301 25.3184C47.3066 24.3691 45.0449 22.4473 45.0449 19.5527C45.0449 17.8652 45.7422 16.459 47.1367 15.334C48.543 14.1973 50.377 13.6289 52.6387 13.6289C55.0527 13.6289 56.9805 14.1973 58.4219 15.334C59.875 16.4707 60.6016 17.9473 60.6016 19.7637H55.5215C55.5215 19.0371 55.2871 18.4395 54.8184 17.9707C54.3496 17.4902 53.6172 17.25 52.6211 17.25C51.7656 17.25 51.1035 17.4434 50.6348 17.8301C50.166 18.2168 49.9316 18.709 49.9316 19.3066C49.9316 19.8691 50.1953 20.3262 50.7227 20.6777C51.2617 21.0176 52.1641 21.3164 53.4297 21.5742C54.6953 21.8203 55.7617 22.1016 56.6289 22.418C59.3125 23.4023 60.6543 25.1074 60.6543 27.5332C60.6543 29.2676 59.9102 30.6738 58.4219 31.752C56.9336 32.8184 55.0117 33.3516 52.6562 33.3516C51.0625 33.3516 49.6445 33.0703 48.4023 32.5078C47.1719 31.9336 46.2051 31.1543 45.502 30.1699C44.7988 29.1738 44.4473 28.1016 44.4473 26.9531H49.2637C49.3105 27.8555 49.6445 28.5469 50.2656 29.0273C50.8867 29.5078 51.7188 29.748 52.7617 29.748C53.7344 29.748 54.4668 29.5664 54.959 29.2031C55.4629 28.8281 55.7148 28.3418 55.7148 27.7441ZM69.3027 33H64.2051V13.9805H69.3027V33ZM63.9062 9.05859C63.9062 8.29688 64.1582 7.66992 64.6621 7.17773C65.1777 6.68555 65.875 6.43945 66.7539 6.43945C67.6211 6.43945 68.3125 6.68555 68.8281 7.17773C69.3438 7.66992 69.6016 8.29688 69.6016 9.05859C69.6016 9.83203 69.3379 10.4648 68.8105 10.957C68.2949 11.4492 67.6094 11.6953 66.7539 11.6953C65.8984 11.6953 65.207 11.4492 64.6797 10.957C64.1641 10.4648 63.9062 9.83203 63.9062 9.05859ZM72.7656 23.3496C72.7656 20.4316 73.457 18.082 74.8398 16.3008C76.2344 14.5195 78.1094 13.6289 80.4648 13.6289C82.5508 13.6289 84.1738 14.3438 85.334 15.7734L85.5449 13.9805H90.1504V32.3672C90.1504 34.0312 89.7695 35.4785 89.0078 36.709C88.2578 37.9395 87.1973 38.877 85.8262 39.5215C84.4551 40.166 82.8496 40.4883 81.0098 40.4883C79.6152 40.4883 78.2559 40.207 76.9316 39.6445C75.6074 39.0938 74.6055 38.3789 73.9258 37.5L76.1758 34.4062C77.4414 35.8242 78.9766 36.5332 80.7812 36.5332C82.1289 36.5332 83.1777 36.1699 83.9277 35.4434C84.6777 34.7285 85.0527 33.709 85.0527 32.3848V31.3652C83.8809 32.6895 82.3398 33.3516 80.4297 33.3516C78.1445 33.3516 76.293 32.4609 74.875 30.6797C73.4688 28.8867 72.7656 26.5137 72.7656 23.5605V23.3496ZM77.8457 23.7188C77.8457 25.4414 78.1914 26.7949 78.8828 27.7793C79.5742 28.752 80.5234 29.2383 81.7305 29.2383C83.2773 29.2383 84.3848 28.6582 85.0527 27.498V19.5C84.373 18.3398 83.2773 17.7598 81.7656 17.7598C80.5469 17.7598 79.5859 18.2578 78.8828 19.2539C78.1914 20.25 77.8457 21.7383 77.8457 23.7188ZM98.7461 13.9805L98.9043 16.1777C100.264 14.4785 102.086 13.6289 104.371 13.6289C106.387 13.6289 107.887 14.2207 108.871 15.4043C109.855 16.5879 110.359 18.3574 110.383 20.7129V33H105.303V20.8359C105.303 19.7578 105.068 18.9785 104.6 18.498C104.131 18.0059 103.352 17.7598 102.262 17.7598C100.832 17.7598 99.7598 18.3691 99.0449 19.5879V33H93.9648V13.9805H98.7461Z" fill="white"/>
</g>
<defs>
<filter id="filter0_d" x="0.861328" y="6" width="113.521" height="42.4883" filterUnits="userSpaceOnUse" color-interpolation-filters="sRGB">
<feFlood flood-opacity="0" result="BackgroundImageFix"/>
<feColorMatrix in="SourceAlpha" type="matrix" values="0 0 0 0 0 0 0 0 0 0 0 0 0 0 0 0 0 0 127 0"/>
<feOffset dy="4"/>
<feGaussianBlur stdDeviation="2"/>
<feColorMatrix type="matrix" values="0 0 0 0 0 0 0 0 0 0 0 0 0 0 0 0 0 0 0.25 0"/>
<feBlend mode="normal" in2="BackgroundImageFix" result="effect1_dropShadow"/>
<feBlend mode="normal" in="SourceGraphic" in2="effect1_dropShadow" result="shape"/>
</filter>
</defs>
</svg>
